:FULLY-SPECIFIED
:FORCE-ALL-JOINTS-BE-3DOF
:DEGREES
272
root 8.31584 16.2031 -25.2101 21.4413 68.9937 19.1991
lfemur -24.2866 7.30727 -22.9007
ltibia 40.18 0 0
lfoot -5.82948 -21.0481 0
ltoes 64.158 0 0
rfemur -52.8537 -6.57798 12.9062
rtibia 86.952 0 0
rfoot 8.7821 -0.779738 0
rtoes 3.28181 0 0
lowerback 6.5114 -4.32848 -2.58122
upperback 1.44647 -5.94199 -1.99644
thorax -2.0925 -2.93372 -0.133769
lowerneck -5.27133 -11.2228 -4.68301
upperneck 0.704198 -14.8192 5.31057
head 1.91905 -7.32161 1.8977
lclavicle -7.48952e-14 1.47846e-15 0
lhumerus -44.7826 -35.5243 107.024
lradius 59.1684 0 0
lwrist 20.1056 0 0
lhand 18.5948 14.6431 0
lfingers 7.12502 0 0
lthumb 43.2233 38.8055 0
rclavicle -7.48952e-14 1.47846e-15 0
rhumerus -53.7978 2.81678 -95.0465
rradius 43.066 0 0
rwrist 25.505 0 0
rhand -18.1165 -1.76148 0
rfingers 7.12502 0 0
rthumb 8.15673 -751.537 0
273
root 8.38151 16.1654 -25.1634 22.4034 69.9128 20.6195
lfemur -23.9922 7.19552 -22.9749
ltibia 41.0911 0 0
lfoot -6.76756 -21.7137 0
ltoes 62.4492 0 0
rfemur -53.1513 -5.92968 13.4144
rtibia 84.4957 0 0
rfoot 8.37037 -0.257237 0
rtoes 2.93869 0 0
lowerback 6.60963 -4.48159 -2.68574
upperback 1.6439 -6.14551 -2.0784
thorax -1.93801 -3.03559 -0.147058
lowerneck -5.13654 -11.2901 -4.74972
upperneck 0.735582 -14.9173 5.44832
head 1.92998 -7.37043 1.95275
lclavicle -6.25364e-14 5.46657e-16 0
lhumerus -44.7428 -35.8156 106.917
lradius 59.219 0 0
lwrist 20.2199 0 0
lhand 18.9069 14.9375 0
lfingers 7.12502 0 0
lthumb 43.5147 38.9922 0
rclavicle -6.25364e-14 5.46657e-16 0
rhumerus -54.5158 3.22964 -95.7175
rradius 44.7262 0 0
rwrist 24.6179 0 0
rhand -20.1664 0.04619 0
rfingers 7.12502 0 0
rthumb 6.17746 -749.769 0
274
root 8.44719 16.1278 -25.1167 23.3654 70.8319 22.04
lfemur -23.6977 7.08377 -23.0492
ltibia 42.0023 0 0
lfoot -7.70565 -22.3792 0
ltoes 60.7404 0 0
rfemur -53.4489 -5.28137 13.9227
rtibia 82.0393 0 0
rfoot 7.95864 0.265265 0
rtoes 2.59558 0 0
lowerback 6.70786 -4.6347 -2.79026
upperback 1.84132 -6.34904 -2.16035
thorax -1.78351 -3.13746 -0.160346
lowerneck -5.00174 -11.3574 -4.81644
upperneck 0.766965 -15.0155 5.58607
head 1.94091 -7.41924 2.0078
lclavicle -5.01776e-14 -3.85145e-16 0
lhumerus -44.703 -36.1068 106.81
lradius 59.2696 0 0
lwrist 20.3342 0 0
lhand 19.2191 15.2318 0
lfingers 7.12502 0 0
lthumb 43.806 39.179 0
rclavicle -5.01776e-14 -3.85145e-16 0
rhumerus -55.2339 3.64249 -96.3886
rradius 46.3863 0 0
rwrist 23.7308 0 0
rhand -22.2163 1.85386 0
rfingers 7.12502 0 0
rthumb 4.19818 -748 0
275
root 8.51287 16.0902 -25.0701 24.3275 71.7509 23.4605
lfemur -23.4032 6.97203 -23.1235
ltibia 42.9134 0 0
lfoot -8.64373 -23.0447 0
ltoes 59.0316 0 0
rfemur -53.7464 -4.63307 14.4309
rtibia 79.5829 0 0
rfoot 7.5469 0.787767 0
rtoes 2.25247 0 0
lowerback 6.80609 -4.78781 -2.89478
upperback 2.03874 -6.55257 -2.2423
thorax -1.62901 -3.23933 -0.173634
lowerneck -4.86695 -11.4246 -4.88315
upperneck 0.798349 -15.1137 5.72383
head 1.95185 -7.46805 2.06286
lclavicle -3.78188e-14 -1.31695e-15 0
lhumerus -44.6632 -36.3981 106.704
lradius 59.3203 0 0
lwrist 20.4486 0 0
lhand 19.5313 15.5261 0
lfingers 7.12502 0 0
lthumb 44.0973 39.3658 0
rclavicle -3.78188e-14 -1.31695e-15 0
rhumerus -55.952 4.05534 -97.0596
rradius 48.0464 0 0
rwrist 22.8437 0 0
rhand -24.2663 3.66153 0
rfingers 7.12502 0 0
rthumb 2.21891 -746.232 0
276
root 8.57854 16.0525 -25.0234 25.2896 72.67 24.8809
lfemur -23.1088 6.86028 -23.1977
ltibia 43.8245 0 0
lfoot -9.58181 -23.7103 0
ltoes 57.3228 0 0
rfemur -54.044 -3.98476 14.9391
rtibia 77.1266 0 0
rfoot 7.13517 1.31027 0
rtoes 1.90935 0 0
lowerback 6.90432 -4.94092 -2.9993
upperback 2.23617 -6.75609 -2.32426
thorax -1.47452 -3.3412 -0.186923
lowerneck -4.73216 -11.4919 -4.94987
upperneck 0.829733 -15.2118 5.86158
head 1.96278 -7.51687 2.11791
lclavicle -2.546e-14 -2.24875e-15 0
lhumerus -44.6234 -36.6894 106.597
lradius 59.3709 0 0
lwrist 20.563 0 0
lhand 19.8434 15.8205 0
lfingers 7.12502 0 0
lthumb 44.3887 39.5525 0
rclavicle -2.546e-14 -2.24875e-15 0
rhumerus -56.67 4.4682 -97.7306
rradius 49.7066 0 0
rwrist 21.9566 0 0
rhand -26.3163 5.4692 0
rfingers 7.12502 0 0
rthumb 0.239642 -744.464 0
277
root 8.64422 16.0149 -24.9767 26.2516 73.5891 26.3014
lfemur -22.8143 6.74853 -23.272
ltibia 44.7356 0 0
lfoot -10.5199 -24.3758 0
ltoes 55.614 0 0
rfemur -54.3415 -3.33646 15.4473
rtibia 74.6702 0 0
rfoot 6.72344 1.83277 0
rtoes 1.56624 0 0
lowerback 7.00255 -5.09403 -3.10382
upperback 2.43359 -6.95962 -2.40621
thorax -1.32002 -3.44307 -0.200211
lowerneck -4.59736 -11.5592 -5.01658
upperneck 0.861117 -15.31 5.99933
head 1.97371 -7.56568 2.17296
lclavicle -1.31012e-14 -3.18055e-15 0
lhumerus -44.5836 -36.9807 106.49
lradius 59.4215 0 0
lwrist 20.6773 0 0
lhand 20.1556 16.1148 0
lfingers 7.12502 0 0
lthumb 44.68 39.7393 0
rclavicle -1.31012e-14 -3.18055e-15 0
rhumerus -57.3881 4.88105 -98.4017
rradius 51.3667 0 0
rwrist 21.0695 0 0
rhand -28.3662 7.27687 0
rfingers 7.12502 0 0
rthumb -1.73963 -742.696 0
278
root 8.71816 15.9658 -24.921 28.1414 74.2917 28.9689
lfemur -22.0572 6.5743 -23.2304
ltibia 45.5069 0 0
lfoot -11.2458 -25.0412 0
ltoes 53.8642 0 0
rfemur -53.3552 -2.87531 15.6425
rtibia 72.3469 0 0
rfoot 7.70262 0.973373 0
rtoes 4.2874 0 0
lowerback 7.07648 -5.20321 -3.41597
upperback 2.71029 -7.10558 -2.55581
thorax -1.04977 -3.51945 -0.18588
lowerneck -4.38244 -11.668 -5.14155
upperneck 0.997416 -15.4718 6.15064
head 2.01812 -7.64733 2.24017
lclavicle -1.32617e-14 -1.50745e-15 0
lhumerus -44.5034 -37.5938 106.376
lradius 59.5601 0 0
lwrist 20.3583 0 0
lhand 19.6172 15.991 0
lfingers 7.12502 0 0
lthumb 44.1767 39.7952 0
rclavicle -1.32617e-14 -1.50745e-15 0
rhumerus -58.2663 5.4172 -98.7071
rradius 53.2484 0 0
rwrist 20.5934 0 0
rhand -28.4065 6.36849 0
rfingers 7.12502 0 0
rthumb -1.77854 -743.604 0
279
root 8.79209 15.9168 -24.8652 30.0313 74.9944 31.6364
lfemur -21.3 6.40006 -23.1888
ltibia 46.2782 0 0
lfoot -11.9717 -25.7067 0
ltoes 52.1144 0 0
rfemur -52.3689 -2.41415 15.8377
rtibia 70.0236 0 0
rfoot 8.68179 0.113977 0
rtoes 7.00856 0 0
lowerback 7.1504 -5.31239 -3.72812
upperback 2.98699 -7.25154 -2.70541
thorax -0.779524 -3.59583 -0.171548
lowerneck -4.16753 -11.7768 -5.26652
upperneck 1.13371 -15.6335 6.30194
head 2.06253 -7.72898 2.30737
lclavicle -1.34221e-14 1.65657e-16 0
lhumerus -44.4232 -38.207 106.263
lradius 59.6987 0 0
lwrist 20.0394 0 0
lhand 19.0787 15.8672 0
lfingers 7.12502 0 0
lthumb 43.6735 39.8511 0
rclavicle -1.34221e-14 1.65657e-16 0
rhumerus -59.1445 5.95335 -99.0125
rradius 55.1301 0 0
rwrist 20.1172 0 0
rhand -28.4468 5.46011 0
rfingers 7.12502 0 0
rthumb -1.81745 -744.512 0
280
root 8.86603 15.8677 -24.8095 31.9211 75.697 34.3039
lfemur -20.5429 6.22583 -23.1471
ltibia 47.0495 0 0
lfoot -12.6976 -26.3721 0
ltoes 50.3646 0 0
rfemur -51.3826 -1.953 16.0329
rtibia 67.7004 0 0
rfoot 9.66097 -0.74542 0
rtoes 9.72972 0 0
lowerback 7.22433 -5.42157 -4.04026
upperback 3.26368 -7.3975 -2.85501
thorax -0.509276 -3.67222 -0.157217
lowerneck -3.95261 -11.8856 -5.39149
upperneck 1.27001 -15.7952 6.45324
head 2.10694 -7.81063 2.37458
lclavicle -1.35826e-14 1.83876e-15 0
lhumerus -44.343 -38.8201 106.149
lradius 59.8372 0 0
lwrist 19.7204 0 0
lhand 18.5403 15.7434 0
lfingers 7.12502 0 0
lthumb 43.1702 39.907 0
rclavicle -1.35826e-14 1.83876e-15 0
rhumerus -60.0228 6.4895 -99.3178
rradius 57.0118 0 0
rwrist 19.641 0 0
rhand -28.4871 4.55173 0
rfingers 7.12502 0 0
rthumb -1.85637 -745.42 0
281
root 8.93997 15.8186 -24.7537 33.811 76.3996 36.9714
lfemur -19.7857 6.0516 -23.1055
ltibia 47.8208 0 0
lfoot -13.4236 -27.0375 0
ltoes 48.6148 0 0
rfemur -50.3962 -1.49184 16.2282
rtibia 65.3771 0 0
rfoot 10.6401 -1.60482 0
rtoes 12.4509 0 0
lowerback 7.29825 -5.53074 -4.35241
upperback 3.54038 -7.54345 -3.00461
thorax -0.239028 -3.7486 -0.142885
lowerneck -3.73769 -11.9943 -5.51645
upperneck 1.40631 -15.957 6.60455
head 2.15135 -7.89228 2.44179
lclavicle -1.37431e-14 3.51186e-15 0
lhumerus -44.2629 -39.4332 106.035
lradius 59.9758 0 0
lwrist 19.4014 0 0
lhand 18.0019 15.6196 0
lfingers 7.12502 0 0
lthumb 42.667 39.963 0
rclavicle -1.37431e-14 3.51186e-15 0
rhumerus -60.901 7.02565 -99.6232
rradius 58.8935 0 0
rwrist 19.1649 0 0
rhand -28.5274 3.64336 0
rfingers 7.12502 0 0
rthumb -1.89528 -746.328 0
282
root 9.0139 15.7696 -24.6979 35.7009 77.1023 39.6389
lfemur -19.0285 5.87736 -23.0639
ltibia 48.5921 0 0
lfoot -14.1495 -27.703 0
ltoes 46.865 0 0
rfemur -49.4099 -1.03069 16.4234
rtibia 63.0538 0 0
rfoot 11.6193 -2.46421 0
rtoes 15.172 0 0
lowerback 7.37218 -5.63992 -4.66456
upperback 3.81708 -7.68941 -3.15421
thorax 0.03122 -3.82498 -0.128553
lowerneck -3.52278 -12.1031 -5.64142
upperneck 1.54261 -16.1188 6.75585
head 2.19576 -7.97393 2.50899
lclavicle -1.39035e-14 5.18497e-15 0
lhumerus -44.1827 -40.0464 105.922
lradius 60.1144 0 0
lwrist 19.0825 0 0
lhand 17.4634 15.4958 0
lfingers 7.12502 0 0
lthumb 42.1638 40.0189 0
rclavicle -1.39035e-14 5.18497e-15 0
rhumerus -61.7792 7.5618 -99.9286
rradius 60.7752 0 0
rwrist 18.6887 0 0
rhand -28.5677 2.73498 0
rfingers 7.12502 0 0
rthumb -1.93419 -747.236 0
283
root 9.08784 15.7205 -24.6422 37.5907 77.8049 42.3064
lfemur -18.2714 5.70313 -23.0223
ltibia 49.3634 0 0
lfoot -14.8754 -28.3684 0
ltoes 45.1152 0 0
rfemur -48.4236 -0.569533 16.6186
rtibia 60.7305 0 0
rfoot 12.5985 -3.32361 0
rtoes 17.8932 0 0
lowerback 7.4461 -5.7491 -4.97671
upperback 4.09378 -7.83537 -3.30381
thorax 0.301468 -3.90136 -0.114222
lowerneck -3.30786 -12.2119 -5.76639
upperneck 1.67891 -16.2805 6.90716
head 2.24017 -8.05558 2.5762
lclavicle -1.4064e-14 6.85807e-15 0
lhumerus -44.1025 -40.6595 105.808
lradius 60.253 0 0
lwrist 18.7635 0 0
lhand 16.925 15.372 0
lfingers 7.12502 0 0
lthumb 41.6605 40.0748 0
rclavicle -1.4064e-14 6.85807e-15 0
rhumerus -62.6574 8.09795 -100.234
rradius 62.6569 0 0
rwrist 18.2126 0 0
rhand -28.608 1.8266 0
rfingers 7.12502 0 0
rthumb -1.9731 -748.144 0
